<?xml version="1.0" encoding="UTF-8"?>
<svg id="Layer_1" xmlns="http://www.w3.org/2000/svg" version="1.1" viewBox="0 0 800 800">
  <!-- Generator: Adobe Illustrator 30.1.0, SVG Export Plug-In . SVG Version: 2.1.1 Build 136)  -->
  <defs>
    <style>
      .st0 {
        fill: #263238;
      }

      .st1 {
        fill: #fff;
      }
    </style>
  </defs>
  <circle class="st0" cx="398.5" cy="398.5" r="395.5"/>
  <path class="st1" d="M707.48,450.04v102.95c0,28.48-23.05,51.54-51.54,51.54H141.05c-28.48,0-51.54-23.05-51.54-51.54v-102.95c0-28.48,23.05-51.54,51.54-51.54h515.01c28.36,0,51.42,23.05,51.42,51.54ZM655.95,364.22c11.35,0,22.57,2.29,33.07,6.64l-103.56-155.34c-9.54-14.36-25.59-22.93-42.85-22.93H254.39c-17.26,0-33.31,8.57-42.85,22.93l-103.56,155.22c10.5-4.35,21.73-6.64,33.07-6.64h514.89v.12ZM604.53,467.18c-18.95,0-34.28,15.33-34.28,34.28s15.33,34.28,34.28,34.28,34.28-15.33,34.28-34.28-15.33-34.28-34.28-34.28ZM501.45,467.18c-18.95,0-34.28,15.33-34.28,34.28s15.33,34.28,34.28,34.28,34.28-15.33,34.28-34.28c.12-18.95-15.33-34.28-34.28-34.28Z"/>
</svg>